<svg width="1440" height="105" viewBox="0 0 1440 105" fill="none" xmlns="http://www.w3.org/2000/svg">
<g filter="url(#filter0_d)">
<path d="M0 0H1440V97H0V0Z" fill="#C4C4C4"/>
</g>
<g filter="url(#filter1_d)">
<path d="M289.96 51C289.72 51 289.516 50.928 289.348 50.784C289.204 50.616 289.132 50.412 289.132 50.172V26.664C289.132 26.4 289.204 26.196 289.348 26.052C289.516 25.884 289.72 25.8 289.96 25.8H291.796C292.06 25.8 292.264 25.884 292.408 26.052C292.576 26.196 292.66 26.4 292.66 26.664V36.6H305.044V26.664C305.044 26.4 305.116 26.196 305.26 26.052C305.428 25.884 305.632 25.8 305.872 25.8H307.708C307.972 25.8 308.176 25.884 308.32 26.052C308.488 26.196 308.572 26.4 308.572 26.664V50.172C308.572 50.412 308.488 50.616 308.32 50.784C308.152 50.928 307.948 51 307.708 51H305.872C305.632 51 305.428 50.928 305.26 50.784C305.116 50.616 305.044 50.412 305.044 50.172V39.84H292.66V50.172C292.66 50.412 292.576 50.616 292.408 50.784C292.24 50.928 292.036 51 291.796 51H289.96ZM323.903 51.36C320.759 51.36 318.323 50.544 316.595 48.912C314.891 47.256 313.991 44.772 313.895 41.46C313.871 40.74 313.859 39.72 313.859 38.4C313.859 37.08 313.871 36.072 313.895 35.376C313.991 32.136 314.927 29.676 316.703 27.996C318.479 26.292 320.879 25.44 323.903 25.44C326.903 25.44 329.291 26.292 331.067 27.996C332.843 29.676 333.779 32.136 333.875 35.376C333.923 36.768 333.947 37.776 333.947 38.4C333.947 39 333.923 40.02 333.875 41.46C333.779 44.772 332.867 47.256 331.139 48.912C329.435 50.544 327.023 51.36 323.903 51.36ZM323.903 48.3C325.799 48.3 327.311 47.724 328.439 46.572C329.567 45.42 330.179 43.656 330.275 41.28C330.323 39.84 330.347 38.88 330.347 38.4C330.347 37.872 330.323 36.912 330.275 35.52C330.179 33.144 329.555 31.38 328.403 30.228C327.275 29.076 325.775 28.5 323.903 28.5C322.007 28.5 320.483 29.076 319.331 30.228C318.203 31.38 317.591 33.144 317.495 35.52C317.471 36.216 317.459 37.176 317.459 38.4C317.459 39.6 317.471 40.56 317.495 41.28C317.591 43.656 318.203 45.42 319.331 46.572C320.483 47.724 322.007 48.3 323.903 48.3ZM340.023 51C339.783 51 339.579 50.928 339.411 50.784C339.267 50.616 339.195 50.412 339.195 50.172V26.664C339.195 26.4 339.267 26.196 339.411 26.052C339.579 25.884 339.783 25.8 340.023 25.8H341.823C342.207 25.8 342.519 25.992 342.759 26.376L350.355 40.92L358.023 26.376C358.071 26.232 358.167 26.1 358.311 25.98C358.479 25.86 358.683 25.8 358.923 25.8H360.687C360.951 25.8 361.155 25.884 361.299 26.052C361.467 26.196 361.551 26.4 361.551 26.664V50.172C361.551 50.412 361.467 50.616 361.299 50.784C361.131 50.928 360.927 51 360.687 51H358.923C358.683 51 358.479 50.928 358.311 50.784C358.167 50.616 358.095 50.412 358.095 50.172V32.46L352.083 44.196C351.843 44.7 351.459 44.952 350.931 44.952H349.815C349.287 44.952 348.903 44.7 348.663 44.196L342.615 32.46V50.172C342.615 50.412 342.531 50.616 342.363 50.784C342.219 50.928 342.027 51 341.787 51H340.023ZM368.605 51C368.365 51 368.161 50.928 367.993 50.784C367.849 50.616 367.777 50.412 367.777 50.172V26.664C367.777 26.4 367.849 26.196 367.993 26.052C368.161 25.884 368.365 25.8 368.605 25.8H383.473C383.713 25.8 383.905 25.884 384.049 26.052C384.217 26.196 384.301 26.4 384.301 26.664V28.032C384.301 28.272 384.229 28.476 384.085 28.644C383.941 28.788 383.737 28.86 383.473 28.86H371.233V36.744H382.681C382.921 36.744 383.113 36.828 383.257 36.996C383.425 37.14 383.509 37.344 383.509 37.608V38.94C383.509 39.18 383.425 39.384 383.257 39.552C383.113 39.696 382.921 39.768 382.681 39.768H371.233V47.94H383.761C384.025 47.94 384.229 48.012 384.373 48.156C384.517 48.3 384.589 48.504 384.589 48.768V50.172C384.589 50.412 384.505 50.616 384.337 50.784C384.193 50.928 384.001 51 383.761 51H368.605Z" fill="black"/>
</g>
<path d="M627.96 51C627.72 51 627.516 50.928 627.348 50.784C627.204 50.616 627.132 50.412 627.132 50.172V26.664C627.132 26.4 627.204 26.196 627.348 26.052C627.516 25.884 627.72 25.8 627.96 25.8H637.104C639.816 25.8 641.952 26.46 643.512 27.78C645.072 29.1 645.852 31.008 645.852 33.504C645.852 36 645.072 37.908 643.512 39.228C641.976 40.524 639.84 41.172 637.104 41.172H630.732V50.172C630.732 50.412 630.648 50.616 630.48 50.784C630.312 50.928 630.108 51 629.868 51H627.96ZM636.924 38.148C638.676 38.148 639.996 37.752 640.884 36.96C641.796 36.168 642.252 35.016 642.252 33.504C642.252 31.992 641.808 30.84 640.92 30.048C640.032 29.232 638.7 28.824 636.924 28.824H630.696V38.148H636.924ZM651.058 51C650.818 51 650.614 50.928 650.446 50.784C650.302 50.616 650.23 50.412 650.23 50.172V26.664C650.23 26.4 650.302 26.196 650.446 26.052C650.614 25.884 650.818 25.8 651.058 25.8H659.842C662.602 25.8 664.762 26.448 666.322 27.744C667.882 29.04 668.662 30.912 668.662 33.36C668.662 35.184 668.206 36.684 667.294 37.86C666.406 39.036 665.146 39.852 663.514 40.308L669.058 49.884C669.13 50.028 669.166 50.16 669.166 50.28C669.166 50.472 669.082 50.64 668.914 50.784C668.77 50.928 668.602 51 668.41 51H666.682C666.322 51 666.034 50.916 665.818 50.748C665.626 50.58 665.446 50.34 665.278 50.028L660.058 40.884H653.758V50.172C653.758 50.412 653.674 50.616 653.506 50.784C653.338 50.928 653.134 51 652.894 51H651.058ZM659.698 37.824C663.274 37.824 665.062 36.324 665.062 33.324C665.062 30.324 663.274 28.824 659.698 28.824H653.758V37.824H659.698ZM682.856 51.36C679.712 51.36 677.276 50.544 675.548 48.912C673.844 47.256 672.944 44.772 672.848 41.46C672.824 40.74 672.812 39.72 672.812 38.4C672.812 37.08 672.824 36.072 672.848 35.376C672.944 32.136 673.88 29.676 675.656 27.996C677.432 26.292 679.832 25.44 682.856 25.44C685.856 25.44 688.244 26.292 690.02 27.996C691.796 29.676 692.732 32.136 692.828 35.376C692.876 36.768 692.9 37.776 692.9 38.4C692.9 39 692.876 40.02 692.828 41.46C692.732 44.772 691.82 47.256 690.092 48.912C688.388 50.544 685.976 51.36 682.856 51.36ZM682.856 48.3C684.752 48.3 686.264 47.724 687.392 46.572C688.52 45.42 689.132 43.656 689.228 41.28C689.276 39.84 689.3 38.88 689.3 38.4C689.3 37.872 689.276 36.912 689.228 35.52C689.132 33.144 688.508 31.38 687.356 30.228C686.228 29.076 684.728 28.5 682.856 28.5C680.96 28.5 679.436 29.076 678.284 30.228C677.156 31.38 676.544 33.144 676.448 35.52C676.424 36.216 676.412 37.176 676.412 38.4C676.412 39.6 676.424 40.56 676.448 41.28C676.544 43.656 677.156 45.42 678.284 46.572C679.436 47.724 680.96 48.3 682.856 48.3ZM705.636 51.36C703.02 51.36 700.848 50.712 699.12 49.416C697.392 48.12 696.48 46.224 696.384 43.728C696.384 43.512 696.456 43.332 696.6 43.188C696.744 43.02 696.936 42.936 697.176 42.936H699.12C699.624 42.936 699.936 43.212 700.056 43.764C700.2 45.3 700.788 46.44 701.82 47.184C702.852 47.928 704.148 48.3 705.708 48.3C707.508 48.3 708.888 47.712 709.848 46.536C710.832 45.336 711.324 43.728 711.324 41.712V28.932H698.544C698.304 28.932 698.1 28.86 697.932 28.716C697.788 28.548 697.716 28.344 697.716 28.104V26.628C697.716 26.388 697.788 26.196 697.932 26.052C698.1 25.884 698.304 25.8 698.544 25.8H714.06C714.324 25.8 714.528 25.884 714.672 26.052C714.84 26.196 714.924 26.4 714.924 26.664V41.784C714.924 44.712 714.096 47.04 712.44 48.768C710.808 50.496 708.54 51.36 705.636 51.36ZM721.792 51C721.552 51 721.348 50.928 721.18 50.784C721.036 50.616 720.964 50.412 720.964 50.172V26.664C720.964 26.4 721.036 26.196 721.18 26.052C721.348 25.884 721.552 25.8 721.792 25.8H736.66C736.9 25.8 737.092 25.884 737.236 26.052C737.404 26.196 737.488 26.4 737.488 26.664V28.032C737.488 28.272 737.416 28.476 737.272 28.644C737.128 28.788 736.924 28.86 736.66 28.86H724.42V36.744H735.868C736.108 36.744 736.3 36.828 736.444 36.996C736.612 37.14 736.696 37.344 736.696 37.608V38.94C736.696 39.18 736.612 39.384 736.444 39.552C736.3 39.696 736.108 39.768 735.868 39.768H724.42V47.94H736.948C737.212 47.94 737.416 48.012 737.56 48.156C737.704 48.3 737.776 48.504 737.776 48.768V50.172C737.776 50.412 737.692 50.616 737.524 50.784C737.38 50.928 737.188 51 736.948 51H721.792ZM751.622 51.36C748.406 51.36 745.958 50.496 744.278 48.768C742.622 47.04 741.734 44.652 741.614 41.604C741.59 40.956 741.578 39.9 741.578 38.436C741.578 36.948 741.59 35.868 741.614 35.196C741.734 32.172 742.634 29.796 744.314 28.068C745.994 26.316 748.43 25.44 751.622 25.44C753.758 25.44 755.57 25.824 757.058 26.592C758.546 27.336 759.674 28.32 760.442 29.544C761.21 30.768 761.63 32.076 761.702 33.468V33.54C761.702 33.732 761.618 33.9 761.45 34.044C761.306 34.164 761.138 34.224 760.946 34.224H758.966C758.486 34.224 758.186 33.948 758.066 33.396C757.658 31.596 756.926 30.336 755.87 29.616C754.814 28.872 753.398 28.5 751.622 28.5C747.494 28.5 745.358 30.792 745.214 35.376C745.19 36.024 745.178 37.02 745.178 38.364C745.178 39.708 745.19 40.728 745.214 41.424C745.358 46.008 747.494 48.3 751.622 48.3C753.398 48.3 754.814 47.94 755.87 47.22C756.95 46.476 757.682 45.204 758.066 43.404C758.138 43.092 758.246 42.876 758.39 42.756C758.534 42.636 758.726 42.576 758.966 42.576H760.946C761.162 42.576 761.342 42.648 761.486 42.792C761.654 42.912 761.726 43.08 761.702 43.296C761.63 44.712 761.21 46.032 760.442 47.256C759.674 48.48 758.546 49.476 757.058 50.244C755.57 50.988 753.758 51.36 751.622 51.36ZM772.863 51C772.623 51 772.419 50.928 772.251 50.784C772.107 50.616 772.035 50.412 772.035 50.172V29.004H765.123C764.883 29.004 764.679 28.932 764.511 28.788C764.367 28.62 764.295 28.416 764.295 28.176V26.664C764.295 26.424 764.367 26.22 764.511 26.052C764.679 25.884 764.883 25.8 765.123 25.8H782.475C782.739 25.8 782.943 25.884 783.087 26.052C783.255 26.196 783.339 26.4 783.339 26.664V28.176C783.339 28.416 783.255 28.62 783.087 28.788C782.919 28.932 782.715 29.004 782.475 29.004H775.599V50.172C775.599 50.412 775.515 50.616 775.347 50.784C775.179 50.928 774.975 51 774.735 51H772.863ZM795.334 51.36C793.342 51.36 791.614 51.048 790.15 50.424C788.71 49.8 787.606 48.984 786.838 47.976C786.07 46.944 785.662 45.84 785.614 44.664C785.614 44.472 785.686 44.304 785.83 44.16C785.998 43.992 786.19 43.908 786.406 43.908H788.242C788.698 43.908 789.01 44.148 789.178 44.628C789.394 45.636 790.006 46.5 791.014 47.22C792.046 47.94 793.486 48.3 795.334 48.3C797.326 48.3 798.826 47.952 799.834 47.256C800.842 46.536 801.346 45.54 801.346 44.268C801.346 43.452 801.094 42.792 800.59 42.288C800.11 41.784 799.39 41.34 798.43 40.956C797.47 40.572 796.03 40.092 794.11 39.516C792.238 38.988 790.75 38.424 789.646 37.824C788.542 37.224 787.714 36.48 787.162 35.592C786.61 34.704 786.334 33.588 786.334 32.244C786.334 30.948 786.682 29.784 787.378 28.752C788.098 27.72 789.118 26.916 790.438 26.34C791.758 25.74 793.33 25.44 795.154 25.44C797.026 25.44 798.634 25.776 799.978 26.448C801.322 27.096 802.342 27.924 803.038 28.932C803.734 29.94 804.106 30.948 804.154 31.956C804.154 32.148 804.082 32.316 803.938 32.46C803.818 32.604 803.638 32.676 803.398 32.676H801.49C800.986 32.676 800.674 32.448 800.554 31.992C800.41 30.984 799.846 30.156 798.862 29.508C797.878 28.836 796.642 28.5 795.154 28.5C793.522 28.5 792.238 28.812 791.302 29.436C790.366 30.06 789.898 30.984 789.898 32.208C789.898 33.024 790.114 33.696 790.546 34.224C791.002 34.752 791.686 35.22 792.598 35.628C793.51 36.012 794.842 36.456 796.594 36.96C798.634 37.512 800.242 38.088 801.418 38.688C802.594 39.264 803.47 39.996 804.046 40.884C804.622 41.748 804.91 42.852 804.91 44.196C804.91 46.428 804.046 48.18 802.318 49.452C800.59 50.724 798.262 51.36 795.334 51.36Z" fill="black"/>
<path d="M1040.44 51C1040.25 51 1040.08 50.928 1039.94 50.784C1039.79 50.64 1039.72 50.472 1039.72 50.28C1039.72 50.088 1039.73 49.956 1039.76 49.884L1048.68 26.592C1048.88 26.064 1049.26 25.8 1049.84 25.8H1052.28C1052.86 25.8 1053.24 26.064 1053.44 26.592L1062.33 49.884L1062.4 50.28C1062.4 50.472 1062.33 50.64 1062.18 50.784C1062.04 50.928 1061.87 51 1061.68 51H1059.84C1059.58 51 1059.38 50.94 1059.23 50.82C1059.09 50.676 1058.99 50.532 1058.94 50.388L1056.96 45.276H1045.16L1043.18 50.388C1043.13 50.532 1043.02 50.676 1042.85 50.82C1042.71 50.94 1042.52 51 1042.28 51H1040.44ZM1055.92 42.18L1051.06 29.4L1046.2 42.18H1055.92ZM1067.08 51C1066.84 51 1066.63 50.928 1066.47 50.784C1066.32 50.616 1066.25 50.412 1066.25 50.172V26.664C1066.25 26.4 1066.32 26.196 1066.47 26.052C1066.63 25.884 1066.84 25.8 1067.08 25.8H1076.94C1079.51 25.8 1081.44 26.412 1082.74 27.636C1084.03 28.86 1084.68 30.468 1084.68 32.46C1084.68 33.804 1084.37 34.92 1083.75 35.808C1083.15 36.696 1082.43 37.344 1081.59 37.752C1082.59 38.256 1083.45 39.036 1084.14 40.092C1084.84 41.148 1085.19 42.36 1085.19 43.728C1085.19 45.072 1084.87 46.296 1084.25 47.4C1083.65 48.504 1082.75 49.38 1081.55 50.028C1080.35 50.676 1078.91 51 1077.23 51H1067.08ZM1076.4 36.456C1077.91 36.456 1079.07 36.108 1079.86 35.412C1080.67 34.716 1081.08 33.744 1081.08 32.496C1081.08 31.272 1080.69 30.336 1079.89 29.688C1079.1 29.04 1077.94 28.716 1076.4 28.716H1069.78V36.456H1076.4ZM1076.76 48.084C1078.27 48.084 1079.45 47.676 1080.29 46.86C1081.15 46.044 1081.59 45 1081.59 43.728C1081.59 42.408 1081.15 41.352 1080.29 40.56C1079.45 39.744 1078.27 39.336 1076.76 39.336H1069.78V48.084H1076.76ZM1099.37 51.36C1096.22 51.36 1093.79 50.544 1092.06 48.912C1090.36 47.256 1089.46 44.772 1089.36 41.46C1089.34 40.74 1089.32 39.72 1089.32 38.4C1089.32 37.08 1089.34 36.072 1089.36 35.376C1089.46 32.136 1090.39 29.676 1092.17 27.996C1093.94 26.292 1096.34 25.44 1099.37 25.44C1102.37 25.44 1104.76 26.292 1106.53 27.996C1108.31 29.676 1109.24 32.136 1109.34 35.376C1109.39 36.768 1109.41 37.776 1109.41 38.4C1109.41 39 1109.39 40.02 1109.34 41.46C1109.24 44.772 1108.33 47.256 1106.6 48.912C1104.9 50.544 1102.49 51.36 1099.37 51.36ZM1099.37 48.3C1101.26 48.3 1102.78 47.724 1103.9 46.572C1105.03 45.42 1105.64 43.656 1105.74 41.28C1105.79 39.84 1105.81 38.88 1105.81 38.4C1105.81 37.872 1105.79 36.912 1105.74 35.52C1105.64 33.144 1105.02 31.38 1103.87 30.228C1102.74 29.076 1101.24 28.5 1099.37 28.5C1097.47 28.5 1095.95 29.076 1094.8 30.228C1093.67 31.38 1093.06 33.144 1092.96 35.52C1092.94 36.216 1092.92 37.176 1092.92 38.4C1092.92 39.6 1092.94 40.56 1092.96 41.28C1093.06 43.656 1093.67 45.42 1094.8 46.572C1095.95 47.724 1097.47 48.3 1099.37 48.3ZM1124.16 51.36C1121.07 51.36 1118.67 50.532 1116.96 48.876C1115.28 47.196 1114.44 44.664 1114.44 41.28V26.664C1114.44 26.4 1114.52 26.196 1114.66 26.052C1114.83 25.884 1115.03 25.8 1115.27 25.8H1117.11C1117.37 25.8 1117.58 25.884 1117.72 26.052C1117.89 26.196 1117.97 26.4 1117.97 26.664V41.352C1117.97 43.656 1118.51 45.384 1119.59 46.536C1120.67 47.688 1122.2 48.264 1124.16 48.264C1126.13 48.264 1127.66 47.688 1128.74 46.536C1129.82 45.384 1130.36 43.656 1130.36 41.352V26.664C1130.36 26.4 1130.43 26.196 1130.57 26.052C1130.74 25.884 1130.94 25.8 1131.18 25.8H1133.06C1133.3 25.8 1133.49 25.884 1133.63 26.052C1133.8 26.22 1133.88 26.424 1133.88 26.664V41.28C1133.88 44.664 1133.03 47.196 1131.33 48.876C1129.65 50.532 1127.26 51.36 1124.16 51.36ZM1146.24 51C1146 51 1145.79 50.928 1145.63 50.784C1145.48 50.616 1145.41 50.412 1145.41 50.172V29.004H1138.5C1138.26 29.004 1138.05 28.932 1137.89 28.788C1137.74 28.62 1137.67 28.416 1137.67 28.176V26.664C1137.67 26.424 1137.74 26.22 1137.89 26.052C1138.05 25.884 1138.26 25.8 1138.5 25.8H1155.85C1156.11 25.8 1156.32 25.884 1156.46 26.052C1156.63 26.196 1156.71 26.4 1156.71 26.664V28.176C1156.71 28.416 1156.63 28.62 1156.46 28.788C1156.29 28.932 1156.09 29.004 1155.85 29.004H1148.97V50.172C1148.97 50.412 1148.89 50.616 1148.72 50.784C1148.55 50.928 1148.35 51 1148.11 51H1146.24Z" fill="black"/>
<line x1="507.5" x2="507.5" y2="97" stroke="black"/>
<line x1="924.5" x2="924.5" y2="97" stroke="black"/>
<defs>
<filter id="filter0_d" x="-4" y="0" width="1448" height="105" filterUnits="userSpaceOnUse" color-interpolation-filters="sRGB">
<feFlood flood-opacity="0" result="BackgroundImageFix"/>
<feColorMatrix in="SourceAlpha" type="matrix" values="0 0 0 0 0 0 0 0 0 0 0 0 0 0 0 0 0 0 127 0"/>
<feOffset dy="4"/>
<feGaussianBlur stdDeviation="2"/>
<feColorMatrix type="matrix" values="0 0 0 0 0 0 0 0 0 0 0 0 0 0 0 0 0 0 0.25 0"/>
<feBlend mode="normal" in2="BackgroundImageFix" result="effect1_dropShadow"/>
<feBlend mode="normal" in="SourceGraphic" in2="effect1_dropShadow" result="shape"/>
</filter>
<filter id="filter1_d" x="285.132" y="25.44" width="103.457" height="33.92" filterUnits="userSpaceOnUse" color-interpolation-filters="sRGB">
<feFlood flood-opacity="0" result="BackgroundImageFix"/>
<feColorMatrix in="SourceAlpha" type="matrix" values="0 0 0 0 0 0 0 0 0 0 0 0 0 0 0 0 0 0 127 0"/>
<feOffset dy="4"/>
<feGaussianBlur stdDeviation="2"/>
<feColorMatrix type="matrix" values="0 0 0 0 0 0 0 0 0 0 0 0 0 0 0 0 0 0 0.25 0"/>
<feBlend mode="normal" in2="BackgroundImageFix" result="effect1_dropShadow"/>
<feBlend mode="normal" in="SourceGraphic" in2="effect1_dropShadow" result="shape"/>
</filter>
</defs>
</svg>
